<svg width="256" height="256" viewBox="0 0 256 256" fill="none" xmlns="http://www.w3.org/2000/svg">
  <rect width="256" height="256" fill="transparent"/>
  <circle cx="128" cy="128" r="110" stroke="#262122" stroke-width="8"/>
  <circle cx="128" cy="128" r="83" stroke="#3A3335" stroke-width="4"/>
  <circle cx="128" cy="128" r="102" stroke="#5A5053" stroke-opacity="0.35" stroke-width="1.5" stroke-dasharray="1 6"/>
  <path d="M77 128C77 122.477 72.5228 118 67 118C61.4772 118 57 122.477 57 128C57 133.523 61.4772 138 67 138C70.0715 138 72.8193 136.615 74.6533 134.437C72.7246 135.567 70.4785 136.214 68.0814 136.214C60.8654 136.214 55.0158 130.365 55.0158 123.149C55.0158 122.842 55.0264 122.537 55.0471 122.236C53.7479 123.914 53 125.991 53 128.243C53 133.766 57.4772 138.243 63 138.243C68.5228 138.243 73 133.766 73 128.243C73 127.894 72.9819 127.549 72.9466 127.208C74.2945 127.73 75.7241 128 77.2167 128H77Z" fill="#262122"/>
  <circle cx="71.5" cy="127.5" r="2.5" fill="#262122"/>
  <path d="M199 128C199 122.477 194.523 118 189 118C183.477 118 179 122.477 179 128C179 133.523 183.477 138 189 138C192.072 138 194.819 136.615 196.653 134.437C194.725 135.567 192.479 136.214 190.081 136.214C182.865 136.214 177.016 130.365 177.016 123.149C177.016 122.842 177.026 122.537 177.047 122.236C175.748 123.914 175 125.991 175 128.243C175 133.766 179.477 138.243 185 138.243C190.523 138.243 195 133.766 195 128.243C195 127.894 194.982 127.549 194.947 127.208C196.295 127.73 197.724 128 199.217 128H199Z" fill="#262122"/>
  <circle cx="193.5" cy="127.5" r="2.5" fill="#262122"/>
  <g fill="#1D1819">
    <path d="M107 92C112 104 115 113 118 124C120 117 123 106 126 97C127 94 129 88 131 85C135 95 140 105 145 116C147 120 150 126 153 133C150 134 148 136 147 139C142 128 138 118 133 108C129 120 126 132 122 143C120 143 118 143 116 143C112 127 108 112 103 97C102 94 101 91 100 88C102 88 105 90 107 92Z"/>
    <path d="M152 78C156 83 157 90 160 96C164 105 169 114 174 122C168 123 163 127 160 132C157 120 153 110 149 99C146 91 145 82 152 78Z"/>
    <path d="M93 105C96 106 97 109 98 112C100 118 103 123 107 127C102 128 97 131 94 135C92 129 90 124 88 119C87 116 85 112 86 109C87 106 90 104 93 105Z"/>
    <path d="M138 78C144 83 142 91 140 98C137 111 137 124 139 137C135 141 131 145 126 148C126 131 126 112 130 96C132 89 134 82 138 78Z"/>
    <path d="M93 144C104 141 112 136 118 129C119 135 120 141 121 147C116 153 109 158 100 160C92 162 84 161 77 157C80 151 86 146 93 144Z"/>
    <path d="M145 141C150 146 156 149 163 149C170 149 176 146 181 141C180 153 169 162 157 162C148 162 139 157 134 149C138 147 142 145 145 141Z"/>
  </g>
  <text x="128" y="121" text-anchor="middle" fill="#1D1819" font-size="28" font-family="Cairo, serif" font-weight="700">الجزائر</text>
  <path id="seal-curve" d="M77 167C92 184 110 193 128 193C146 193 164 184 179 167" fill="none"/>
  <text fill="#2B2426" font-size="14" font-family="Georgia, 'Times New Roman', serif" font-weight="700" letter-spacing="2.6">
    <textPath href="#seal-curve" startOffset="50%" text-anchor="middle">COUR DES COMPTES</textPath>
  </text>
</svg>
